<?xml version="1.0" encoding="UTF-8" standalone="no"?>
<svg width="40px" height="40px" viewBox="0 0 40 40" version="1.1" xmlns="http://www.w3.org/2000/svg" xmlns:xlink="http://www.w3.org/1999/xlink">
    <!-- Generator: Sketch 46.2 (44496) - http://www.bohemiancoding.com/sketch -->
    <title>export/file-nloc</title>
    <desc>Created with Sketch.</desc>
    <defs></defs>
    <g id="export" stroke="none" stroke-width="1" fill="none" fill-rule="evenodd">
        <g id="export/file-nloc" fill-rule="nonzero" fill="#000000">
            <path d="M33.0869565,2 L16.327257,2 L7,11.327257 L7,38 L33.0869565,38 L33.0869565,2 Z M34.0869565,40 L6,40 C5.44771525,40 5,39.5522847 5,39 L5,10.9130435 C5,10.647827 5.10535684,10.3934731 5.29289322,10.2059367 L15.2059367,0.292893219 C15.3934731,0.10535684 15.647827,0 15.9130435,0 L34.0869565,0 C34.6392413,0 35.0869565,0.44771525 35.0869565,1 L35.0869565,39 C35.0869565,39.5522847 34.6392413,40 34.0869565,40 Z" id="Stroke-1"></path>
            <g id="Group" transform="translate(11.000000, 14.000000)">
                <polygon id="Line" points="-0.5 2 18.5293864 2 18.5293864 0 -0.5 0"></polygon>
                <polygon id="Line" points="-0.5 6 18.5293864 6 18.5293864 4 -0.5 4"></polygon>
                <polygon id="Line" points="-0.5 10 18.5293864 10 18.5293864 8 -0.5 8"></polygon>
                <polygon id="Line" points="-0.5 14 18.5293864 14 18.5293864 12 -0.5 12"></polygon>
            </g>
        </g>
    </g>
</svg>