<?xml version="1.0" encoding="UTF-8" standalone="no"?>
<svg width="40px" height="40px" viewBox="0 0 40 40" version="1.1" xmlns="http://www.w3.org/2000/svg" xmlns:xlink="http://www.w3.org/1999/xlink">
    <!-- Generator: Sketch 46.2 (44496) - http://www.bohemiancoding.com/sketch -->
    <title>export/function-nloc</title>
    <desc>Created with Sketch.</desc>
    <defs></defs>
    <g id="export" stroke="none" stroke-width="1" fill="none" fill-rule="evenodd">
        <g id="export/function-nloc" fill-rule="nonzero" fill="#000000">
            <path d="M11.9722222,15 L11.9722222,13 L28.0555316,13 L28.0555316,15 L11.9722222,15 Z M11.9722222,19 L11.9722222,17 L28.0555316,17 L28.0555316,19 L11.9722222,19 Z M11.9722222,23 L11.9722222,21 L28.0555316,21 L28.0555316,23 L11.9722222,23 Z M11.9722222,27 L11.9722222,25 L28.0555316,25 L28.0555316,27 L11.9722222,27 Z M2,20.0162392 L2,19.0324995 C4.209139,19.0324995 6,17.2416385 6,15.0324995 L6,9.14130648 C6,5.74955657 8.74955657,3 12.1413065,3 L12.1413065,5 C9.85412607,5 8,6.85412607 8,9.14130648 L8,15.0324995 C8,17.1194703 6.93449066,18.957578 5.31779512,20.0324995 C6.93449066,21.1074211 8,22.9455288 8,25.0324995 L8,30.9998944 C8,33.2168699 9.78957106,35.0181108 12.0064998,35.0325206 L11.9935002,37.0324784 C8.67709851,37.0109221 6,34.3163662 6,30.9998944 L6,25.0324995 C6,22.8233605 4.209139,21.0324995 2,21.0324995 L2,20.0162392 Z M38.1413065,21.0324995 C35.9321675,21.0324995 34.1413065,22.8233605 34.1413065,25.0324995 L34.1413065,30.9998944 C34.1413065,34.3163662 31.464208,37.0109221 28.1478062,37.0324784 L28.1348067,35.0325206 C30.3517354,35.0181108 32.1413065,33.2168699 32.1413065,30.9998944 L32.1413065,25.0324995 C32.1413065,22.9455288 33.2068158,21.1074211 34.8235114,20.0324995 C33.2068158,18.957578 32.1413065,17.1194703 32.1413065,15.0324995 L32.1413065,9.14130648 C32.1413065,6.85412607 30.2871804,5 28,5 L28,3 C31.3917499,3 34.1413065,5.74955657 34.1413065,9.14130648 L34.1413065,15.0324995 C34.1413065,17.2416385 35.9321675,19.0324995 38.1413065,19.0324995 L38.1413065,21.0324995 Z" id="Combined-Shape"></path>
        </g>
    </g>
</svg>