<?xml version="1.0" encoding="UTF-8" standalone="no"?>
<svg width="40px" height="40px" viewBox="0 0 40 40" version="1.1" xmlns="http://www.w3.org/2000/svg" xmlns:xlink="http://www.w3.org/1999/xlink">
    <!-- Generator: Sketch 46.2 (44496) - http://www.bohemiancoding.com/sketch -->
    <title>export/function-count-of-parameter</title>
    <desc>Created with Sketch.</desc>
    <defs></defs>
    <g id="export" stroke="none" stroke-width="1" fill="none" fill-rule="evenodd">
        <g id="export/function-count-of-parameter" fill="#000000">
            <path d="M16.2300374,12.0542299 C15.7891892,12.6138857 15.388424,13.2125782 15.02773,13.8503254 C14.6670359,14.4880726 14.3531032,15.1485866 14.0859225,15.8318872 C13.8187417,16.5151878 13.6116797,17.214747 13.4647303,17.9305857 C13.3177809,18.6464244 13.2443073,19.3622524 13.2443073,20.0780911 C13.2443073,21.5227838 13.5215031,22.9153946 14.0759032,24.2559653 C14.6303033,25.596536 15.3483409,26.8394737 16.2300374,27.9848156 L14.8473839,29 C14.2729452,28.3882833 13.7519505,27.7342768 13.2843842,27.037961 C12.8168178,26.3416451 12.412713,25.6160558 12.0720575,24.8611714 C11.731402,24.1062869 11.4675649,23.3286374 11.2805384,22.5281996 C11.0935119,21.7277617 11,20.9045595 11,20.0585683 C11,19.2255924 11.0935119,18.3991364 11.2805384,17.5791757 C11.4675649,16.759215 11.731402,15.9652967 12.0720575,15.197397 C12.412713,14.4294972 12.8168178,13.6941467 13.2843842,12.9913232 C13.7519505,12.2884997 14.2729452,11.624732 14.8473839,11 L16.2300374,12.0542299 Z M25.2801336,19.7071584 C24.732413,20.2147531 24.2080786,20.6182198 23.7071147,20.9175705 C23.2061507,21.2169212 22.6150221,21.3665944 21.9337112,21.3665944 C21.5062219,21.3665944 21.1121362,21.3112804 20.7514422,21.2006508 C20.3907481,21.0900211 20.0367389,20.9631244 19.6894039,20.8199566 C19.4088641,20.7028194 19.1283285,20.5954452 18.8477887,20.4978308 C18.5672489,20.4002164 18.2933927,20.35141 18.0262119,20.35141 C17.705595,20.35141 17.3883226,20.4522766 17.0743852,20.654013 C16.7604478,20.8557494 16.4565342,21.0997816 16.1626354,21.3861171 L14.7198664,19.9023861 C15.2408689,19.4468524 15.7718827,19.0596545 16.3129238,18.7407809 C16.8539649,18.4219073 17.4317346,18.2624729 18.0462504,18.2624729 C18.5004577,18.2624729 18.9279405,18.3242944 19.3287117,18.4479393 C19.7294828,18.5715841 20.1102097,18.7049884 20.4709038,18.8481562 C20.7380845,18.9522782 20.9919025,19.0466373 21.2323651,19.1312364 C21.4728278,19.2158356 21.7066075,19.2581345 21.9337112,19.2581345 C22.2810462,19.2581345 22.6116774,19.1605216 22.9256148,18.9652928 C23.2395522,18.7700641 23.530107,18.5423007 23.7972877,18.2819957 L25.2801336,19.7071584 Z M25.1526161,11 C25.7270548,11.624732 26.2480495,12.2884997 26.7156158,12.9913232 C27.1831822,13.6941467 27.587287,14.4294972 27.9279425,15.197397 C28.268598,15.9652967 28.5324351,16.759215 28.7194616,17.5791757 C28.9064881,18.3991364 29,19.2255924 29,20.0585683 C29,20.9045595 28.9064881,21.7277617 28.7194616,22.5281996 C28.5324351,23.3286374 28.268598,24.1062869 27.9279425,24.8611714 C27.587287,25.6160558 27.1831822,26.3416451 26.7156158,27.037961 C26.2480495,27.7342768 25.7270548,28.3882833 25.1526161,29 L23.7699626,27.9848156 C24.6516591,26.8394737 25.3696967,25.596536 25.9240968,24.2559653 C26.4784969,22.9153946 26.7556927,21.5227838 26.7556927,20.0780911 C26.7556927,19.3622524 26.6822191,18.6464244 26.5352697,17.9305857 C26.3883203,17.214747 26.1812583,16.5151878 25.9140775,15.8318872 C25.6468968,15.1485866 25.3329641,14.4880726 24.97227,13.8503254 C24.611576,13.2125782 24.2108108,12.6138857 23.7699626,12.0542299 L25.1526161,11 Z M2,20.0162392 L2,19.0324995 C4.209139,19.0324995 6,17.2416385 6,15.0324995 L6,9.14130648 C6,5.74955657 8.74955657,3 12.1413065,3 L12.1413065,5 C9.85412607,5 8,6.85412607 8,9.14130648 L8,15.0324995 C8,17.1194703 6.93449066,18.957578 5.31779512,20.0324995 C6.93449066,21.1074211 8,22.9455288 8,25.0324995 L8,30.9998944 C8,33.2168699 9.78957106,35.0181108 12.0064998,35.0325206 L11.9935002,37.0324784 C8.67709851,37.0109221 6,34.3163662 6,30.9998944 L6,25.0324995 C6,22.8233605 4.209139,21.0324995 2,21.0324995 L2,20.0162392 Z M38.1413065,21.0324995 C35.9321675,21.0324995 34.1413065,22.8233605 34.1413065,25.0324995 L34.1413065,30.9998944 C34.1413065,34.3163662 31.464208,37.0109221 28.1478062,37.0324784 L28.1348067,35.0325206 C30.3517354,35.0181108 32.1413065,33.2168699 32.1413065,30.9998944 L32.1413065,25.0324995 C32.1413065,22.9455288 33.2068158,21.1074211 34.8235114,20.0324995 C33.2068158,18.957578 32.1413065,17.1194703 32.1413065,15.0324995 L32.1413065,9.14130648 C32.1413065,6.85412607 30.2871804,5 28,5 L28,3 C31.3917499,3 34.1413065,5.74955657 34.1413065,9.14130648 L34.1413065,15.0324995 C34.1413065,17.2416385 35.9321675,19.0324995 38.1413065,19.0324995 L38.1413065,21.0324995 Z" id="Combined-Shape"></path>
        </g>
    </g>
</svg>