<?xml version="1.0" encoding="UTF-8" standalone="no"?>
<svg width="40px" height="40px" viewBox="0 0 40 40" version="1.1" xmlns="http://www.w3.org/2000/svg" xmlns:xlink="http://www.w3.org/1999/xlink">
    <!-- Generator: Sketch 46.2 (44496) - http://www.bohemiancoding.com/sketch -->
    <title>export/file-ccn</title>
    <desc>Created with Sketch.</desc>
    <defs></defs>
    <g id="export" stroke="none" stroke-width="1" fill="none" fill-rule="evenodd">
        <g id="export/file-ccn" fill-rule="nonzero" fill="#000000">
            <path d="M23,13 L17,13 L17,17.125 L15,17.125 L15,13 L13,13 L13,24.9985312 L11,24.9985312 L11,11 L29,11 L29,13 L25,13 L25,20.875 L23,20.875 L23,17 L21,17 L21,24.9371812 L19,24.9371812 L19,15 L23,15 L23,13 Z M25,27 L27,27 L27,15.0033892 L29,15.0033892 L29,29 L11,29 L11,27 L15,27 L15,19.125 L17,19.125 L17,27 L23,27 L23,22.875 L25,22.875 L25,27 Z M5,39 L5,10.9130435 C5,10.647827 5.10535684,10.3934731 5.29289322,10.2059367 L15.2059367,0.292893219 C15.3934731,0.10535684 15.647827,0 15.9130435,0 L34,0 C34.5522847,0 35,0.44771525 35,1 L35,39 C35,39.5522847 34.5522847,40 34,40 L6,40 C5.44771525,40 5,39.5522847 5,39 Z M7,38 L33,38 L33,2 L16.327257,2 L7,11.327257 L7,38 Z" id="Combined-Shape"></path>
        </g>
    </g>
</svg>