<?xml version="1.0" encoding="UTF-8" standalone="no"?>
<svg width="40px" height="40px" viewBox="0 0 40 40" version="1.1" xmlns="http://www.w3.org/2000/svg" xmlns:xlink="http://www.w3.org/1999/xlink">
    <!-- Generator: Sketch 46.2 (44496) - http://www.bohemiancoding.com/sketch -->
    <title>export/file-count-of-functions</title>
    <desc>Created with Sketch.</desc>
    <defs></defs>
    <g id="export" stroke="none" stroke-width="1" fill="none" fill-rule="evenodd">
        <g id="export/file-count-of-functions" fill-rule="nonzero" fill="#000000">
            <path d="M5,39 L5,10.9130435 C5,10.647827 5.10535684,10.3934731 5.29289322,10.2059367 L15.2059367,0.292893219 C15.3934731,0.10535684 15.647827,0 15.9130435,0 L34,0 C34.5522847,0 35,0.44771525 35,1 L35,39 C35,39.5522847 34.5522847,40 34,40 L6,40 C5.44771525,40 5,39.5522847 5,39 Z M7,38 L33,38 L33,2 L16.327257,2 L7,11.327257 L7,38 Z M12.5,20.9803922 L13.4065631,20.9803922 C13.7794775,20.9803922 14.0173676,20.8823539 14.1202405,20.6862745 C14.2231134,20.4901951 14.2745491,20.215688 14.2745491,19.8627451 L14.2745491,15.627451 C14.2745491,14.6862698 14.4770771,14.0130739 14.8821393,13.6078431 C15.2872014,13.2026124 15.9333623,13 16.8206413,13 L17.9972445,13 L17.9972445,14.745098 L17.1099699,14.745098 C16.7756329,14.745098 16.5473871,14.8267966 16.4252255,14.9901961 C16.3030639,15.1535956 16.241984,15.3921553 16.241984,15.7058824 L16.241984,20.1764706 C16.241984,20.5294135 16.1905483,20.8562076 16.0876754,21.1568627 C15.9848024,21.4575178 15.7919186,21.7320249 15.509018,21.9803922 C15.7919186,22.2156875 15.9848024,22.4836586 16.0876754,22.7843137 C16.1905483,23.0849688 16.241984,23.4052271 16.241984,23.745098 L16.241984,28.2941176 C16.241984,28.6078447 16.3030639,28.8464044 16.4252255,29.0098039 C16.5473871,29.1732034 16.7756329,29.254902 17.1099699,29.254902 L17.9972445,29.254902 L17.9972445,31 L16.8206413,31 C15.9333623,31 15.2872014,30.7973876 14.8821393,30.3921569 C14.4770771,29.9869261 14.2745491,29.3137302 14.2745491,28.372549 L14.2745491,24.0588235 C14.2745491,23.7058806 14.2231134,23.4313735 14.1202405,23.2352941 C14.0173676,23.0392147 13.7794775,22.9411765 13.4065631,22.9411765 L12.5,22.9411765 L12.5,20.9803922 Z M27.5,22.9411765 L26.5934369,22.9411765 C26.2205225,22.9411765 25.9826324,23.0392147 25.8797595,23.2352941 C25.7768866,23.4313735 25.7254509,23.7058806 25.7254509,24.0588235 L25.7254509,28.372549 C25.7254509,29.3137302 25.5229229,29.9869261 25.1178607,30.3921569 C24.7127986,30.7973876 24.0666377,31 23.1793587,31 L22.0027555,31 L22.0027555,29.254902 L22.8900301,29.254902 C23.2243671,29.254902 23.4526129,29.1732034 23.5747745,29.0098039 C23.6969361,28.8464044 23.758016,28.6078447 23.758016,28.2941176 L23.758016,23.745098 C23.758016,23.4052271 23.8094517,23.0849688 23.9123246,22.7843137 C24.0151976,22.4836586 24.2080814,22.2156875 24.490982,21.9803922 C24.2080814,21.7320249 24.0151976,21.4575178 23.9123246,21.1568627 C23.8094517,20.8562076 23.758016,20.5294135 23.758016,20.1764706 L23.758016,15.7058824 C23.758016,15.3921553 23.6969361,15.1535956 23.5747745,14.9901961 C23.4526129,14.8267966 23.2243671,14.745098 22.8900301,14.745098 L22.0027555,14.745098 L22.0027555,13 L23.1793587,13 C24.0666377,13 24.7127986,13.2026124 25.1178607,13.6078431 C25.5229229,14.0130739 25.7254509,14.6862698 25.7254509,15.627451 L25.7254509,19.8627451 C25.7254509,20.215688 25.7768866,20.4901951 25.8797595,20.6862745 C25.9826324,20.8823539 26.2205225,20.9803922 26.5934369,20.9803922 L27.5,20.9803922 L27.5,22.9411765 Z" id="Stroke-1"></path>
        </g>
    </g>
</svg>