<?xml version="1.0" encoding="UTF-8" standalone="no"?>
<svg width="40px" height="40px" viewBox="0 0 40 40" version="1.1" xmlns="http://www.w3.org/2000/svg" xmlns:xlink="http://www.w3.org/1999/xlink">
    <!-- Generator: Sketch 46.2 (44496) - http://www.bohemiancoding.com/sketch -->
    <title>export/misc-info_style</title>
    <desc>Created with Sketch.</desc>
    <defs></defs>
    <g id="export" stroke="none" stroke-width="1" fill="none" fill-rule="evenodd">
        <g id="export/misc-info_style" fill-rule="nonzero" fill="#000000">
            <path d="M20,38 C10.0588745,38 2,29.9411255 2,20 C2,10.0588745 10.0588745,2 20,2 C29.9411255,2 38,10.0588745 38,20 C38,29.9411255 29.9411255,38 20,38 Z M20,36 C28.836556,36 36,28.836556 36,20 C36,11.163444 28.836556,4 20,4 C11.163444,4 4,11.163444 4,20 C4,28.836556 11.163444,36 20,36 Z M19.455,28 L19.455,17.198 L21.875,17.198 L21.875,28 L19.455,28 Z M19.389,15.13 L19.389,12.512 L21.941,12.512 L21.941,15.13 L19.389,15.13 Z" id="Oval-2"></path>
        </g>
    </g>
</svg>