<?xml version="1.0" encoding="UTF-8" standalone="no"?>
<svg width="40px" height="40px" viewBox="0 0 40 40" version="1.1" xmlns="http://www.w3.org/2000/svg" xmlns:xlink="http://www.w3.org/1999/xlink">
    <!-- Generator: Sketch 46.2 (44496) - http://www.bohemiancoding.com/sketch -->
    <title>export/file-codelines</title>
    <desc>Created with Sketch.</desc>
    <defs></defs>
    <g id="export" stroke="none" stroke-width="1" fill="none" fill-rule="evenodd">
        <g id="export/file-codelines" fill-rule="nonzero" fill="#000000">
            <path d="M34.0869565,40 L6,40 C5.44771525,40 5,39.5522847 5,39 L5,10.9130435 C5,10.647827 5.10535684,10.3934731 5.29289322,10.2059367 L15.2059367,0.292893219 C15.3934731,0.10535684 15.647827,0 15.9130435,0 L34.0869565,0 C34.6392413,0 35.0869565,0.44771525 35.0869565,1 L35.0869565,39 C35.0869565,39.5522847 34.6392413,40 34.0869565,40 Z M33.0869565,2 L16.327257,2 L7,11.327257 L7,38 L33.0869565,38 L33.0869565,2 Z M28.2981496,21 L24.6679497,15.5547002 L26.3320503,14.4452998 L30.7018504,21 L26.3320503,27.5547002 L24.6679497,26.4452998 L28.2981496,21 Z M15.7018504,26.4452998 L14.0377498,27.5547002 L9.66794971,21 L14.0377498,14.4452998 L15.7018504,15.5547002 L12.0716506,21 L15.7018504,26.4452998 Z M22.281295,11.947245 L24.190255,12.543795 L18.718705,30.052755 L16.809745,29.456205 L22.281295,11.947245 Z" id="Stroke-1"></path>
        </g>
    </g>
</svg>