<?xml version="1.0" encoding="UTF-8" standalone="no"?>
<svg width="40px" height="40px" viewBox="0 0 40 40" version="1.1" xmlns="http://www.w3.org/2000/svg" xmlns:xlink="http://www.w3.org/1999/xlink">
    <!-- Generator: Sketch 46.2 (44496) - http://www.bohemiancoding.com/sketch -->
    <title>export/misc-performance</title>
    <desc>Created with Sketch.</desc>
    <defs></defs>
    <g id="export" stroke="none" stroke-width="1" fill="none" fill-rule="evenodd">
        <g id="export/misc-performance" fill-rule="nonzero" fill="#000000">
            <path d="M14,20 C14,23.3070486 16.6929514,26 20,26 C23.3070486,26 26,23.3070486 26,20 C26,16.6929514 23.3070486,14 20,14 C16.6929514,14 14,16.6929514 14,20 Z M12,20 C12,15.5883819 15.5883819,12 20,12 C24.4116181,12 28,15.5883819 28,20 C28,24.4116181 24.4116181,28 20,28 C15.5883819,28 12,24.4116181 12,20 Z M35.1828464,18.495518 C35.2402607,19.0394871 35.2686903,19.5130976 35.2686903,20 C35.2686903,20.4869372 35.2402566,20.9605807 35.1828341,21.5045987 L39.0928339,25.5158113 C39.4056915,25.8367674 39.4667754,26.3266909 39.2423047,26.7146414 L35.4385453,33.2886414 C35.2149371,33.6751012 34.7622284,33.8665017 34.3292104,33.7576565 L28.8877548,32.3898692 C28.0379752,32.9934376 27.1791449,33.4965053 26.2946733,33.8975128 L24.7704197,39.2728101 C24.6484143,39.7030633 24.2555688,40 23.8083518,40 L16.2008328,40 C15.7537131,40 15.3609282,39.7031901 15.2388366,39.2730626 L13.7131674,33.8981483 C12.8046719,33.4886025 11.940543,32.9861635 11.115624,32.3913286 L5.67997418,33.7576565 C5.24695626,33.8665017 4.79424752,33.6751012 4.57063935,33.2886414 L0.766879872,26.7146414 C0.542445412,26.3267535 0.603470143,25.8369161 0.916214663,25.5159509 L4.82516302,21.5042529 C4.76936977,20.9664882 4.74049428,20.477859 4.74049428,20 C4.74049428,19.5231154 4.76943198,19.0335331 4.8251711,18.4958846 L0.916347132,14.4858372 C0.603492549,14.1648809 0.542410147,13.6749596 0.766879872,13.2870108 L4.57063935,6.71301077 C4.79424752,6.32655097 5.24695626,6.13515048 5.67997418,6.24399569 L11.1208715,7.6116426 C11.9699194,7.00754 12.8288209,6.50421274 13.7130574,6.10376213 L15.2388163,0.727008976 C15.3608835,0.296845839 15.7536855,0 16.2008328,0 L23.8083518,0 C24.2555964,0 24.6484591,0.296972639 24.77044,0.727261398 L26.2943234,6.10277562 C27.2019026,6.5107472 28.06637,7.01353499 28.8936269,7.61030692 L34.3292104,6.24399569 C34.7622284,6.13515048 35.2149371,6.32655097 35.4385453,6.71301077 L39.2423047,13.2870108 C39.4668107,13.6750222 39.405669,14.1650297 39.0927014,14.4859768 L35.1828464,18.495518 Z M33.4186485,22.5600148 C33.2063477,22.3422185 33.1047073,22.0396406 33.1424691,21.7378444 C33.2278733,21.0552858 33.2686903,20.5297589 33.2686903,20 C33.2686903,19.4702411 33.2278733,18.9447142 33.1424691,18.2621556 C33.104699,17.9602934 33.2063924,17.657653 33.418781,17.4398493 L37.1315197,13.63245 L34.085211,8.36754467 L28.9209446,9.66565648 C28.6244806,9.74017691 28.3102153,9.6750058 28.067832,9.48874132 C27.1261707,8.76510242 26.136804,8.1895607 25.0840533,7.75958801 C24.7993296,7.64329893 24.5839545,7.40246075 24.5000721,7.10656469 L23.0524321,2 L16.9565464,2 L15.5073871,7.10681711 C15.4235001,7.40243394 15.2083578,7.64306913 14.9239396,7.75939913 C13.9095309,8.17430294 12.922335,8.75299728 11.9320688,9.49578998 C11.6908002,9.67676412 11.3807403,9.73918057 11.08824,9.66565648 L5.92397358,8.36754467 L2.87758801,13.6325828 L6.58888586,17.4399889 C6.80118427,17.657785 6.90282333,17.9603612 6.86506172,18.2621556 C6.7827331,18.9201335 6.74049428,19.4779493 6.74049428,20 C6.74049428,20.5231011 6.78260242,21.0788221 6.86506172,21.7378444 C6.90281507,22.0395727 6.80122895,22.3420865 6.58901833,22.5598752 L2.87751319,26.36894 L5.92397358,31.6341075 L11.08824,30.3359957 C11.384704,30.2614753 11.6989693,30.3266464 11.9413527,30.5129109 C12.8792494,31.2336568 13.8690305,31.80928 14.9250688,32.2427157 C15.2089244,32.3592201 15.4235819,32.5995901 15.5073668,32.8947635 L16.956488,38 L23.0524905,38 L24.5000924,32.895016 C24.5838729,32.599563 24.7987634,32.3589897 25.0829251,32.2425258 C26.0985066,31.8262887 27.0859512,31.2476723 28.077972,30.5052206 C28.319134,30.3247294 28.6288079,30.262563 28.9209446,30.3359957 L34.085211,31.6341075 L37.1315946,26.3690728 L33.4186485,22.5600148 Z" id="Stroke-1"></path>
        </g>
    </g>
</svg>