<?xml version="1.0" encoding="UTF-8" standalone="no"?>
<svg width="40px" height="40px" viewBox="0 0 40 40" version="1.1" xmlns="http://www.w3.org/2000/svg" xmlns:xlink="http://www.w3.org/1999/xlink">
    <!-- Generator: Sketch 46.2 (44496) - http://www.bohemiancoding.com/sketch -->
    <title>export/misc-portability</title>
    <desc>Created with Sketch.</desc>
    <defs></defs>
    <g id="export" stroke="none" stroke-width="1" fill="none" fill-rule="evenodd">
        <g id="export/misc-portability">
            <path d="M24.7981496,11 L31.4226499,1.06324951 L33.0867505,2.1726499 L27.2018504,11 L36,11 L36,19 L21.8685171,19 L20.5351838,21 L36,21 L36,29 L15.2018504,29 L8.5773501,38.9367505 L6.91324951,37.8273501 L12.7981496,29 L5,29 L5,21 L18.1314829,21 L19.4648162,19 L5,19 L5,11 L24.7981496,11 Z M23.4648162,13 L7,13 L7,17 L20.7981496,17 L23.4648162,13 Z M25.8685171,13 L23.2018504,17 L34,17 L34,13 L25.8685171,13 Z M16.7981496,23 L7,23 L7,27 L14.1314829,27 L16.7981496,23 Z M19.2018504,23 L16.5351838,27 L34,27 L34,23 L19.2018504,23 Z" id="Rectangle" fill="#000000" fill-rule="nonzero"></path>
            <g id="Group" transform="translate(8.000000, 2.000000)"></g>
        </g>
    </g>
</svg>